<?xml version="1.0" standalone="no"?>
<!DOCTYPE svg PUBLIC "-//W3C//DTD SVG 20010904//EN"
 "http://www.w3.org/TR/2001/REC-SVG-20010904/DTD/svg10.dtd">
<svg version="1.0" xmlns="http://www.w3.org/2000/svg"
 width="512.000000pt" height="512.000000pt" viewBox="0 0 512.000000 512.000000"
 preserveAspectRatio="xMidYMid meet">
<metadata>
Created by potrace 1.11, written by Peter Selinger 2001-2013
</metadata>
<g transform="translate(0.000000,512.000000) scale(0.100000,-0.100000)"
fill="#000000" stroke="none">
<path d="M846 3653 c-1 -1 -53 -3 -116 -4 -68 -1 -128 -7 -147 -14 -17 -7 -33
-11 -36 -9 -4 5 -111 -51 -135 -70 -68 -56 -140 -155 -157 -218 -2 -5 -3 -9
-5 -10 -3 -5 -10 -42 -13 -68 -2 -14 -5 -30 -8 -35 -7 -14 -3 -1263 5 -1300 3
-16 7 -39 10 -50 2 -11 5 -25 5 -32 1 -6 8 -19 17 -27 8 -9 13 -16 9 -16 -16
0 34 -70 93 -129 65 -65 141 -111 208 -127 16 -4 431 -7 922 -8 l892 -2 0 198
0 198 -845 0 c-597 0 -851 3 -868 11 -42 19 -47 47 -47 254 l0 195 881 0 880
0 -4 438 c-3 377 -7 466 -17 480 -2 1 -3 5 -5 10 -24 85 -89 178 -166 237 -28
21 -59 40 -67 41 -8 2 -18 6 -21 11 -3 4 -13 9 -21 11 -8 2 -26 9 -40 15 -14
7 -82 14 -160 15 -160 4 -1041 8 -1044 5z m1114 -434 l26 -29 -1 -198 0 -197
-675 0 -675 0 -3 185 c-3 204 -1 221 28 248 20 18 49 19 648 19 l627 1 25 -29z"/>
<path d="M3323 3652 c-370 -1 -573 -6 -574 -12 -1 -13 -1 -62 0 -247 l1 -148
850 1 851 1 23 -22 c24 -22 24 -24 24 -226 l0 -204 -874 0 -874 0 0 -65 c-2
-197 2 -808 4 -825 3 -18 6 -29 24 -75 3 -8 4 -18 4 -22 -1 -5 2 -8 8 -8 6 0
9 -3 8 -7 -6 -23 60 -105 136 -171 29 -25 117 -69 156 -79 31 -7 1798 -11
1808 -3 9 6 9 1703 1 1710 -4 3 -8 21 -10 40 -2 19 -10 45 -17 58 -8 12 -11
22 -8 22 12 0 -75 121 -106 148 -17 15 -39 36 -49 46 -11 11 -19 16 -19 11 0
-4 -8 -1 -17 7 -25 21 -83 48 -103 48 -9 0 -20 3 -23 6 -4 4 -23 8 -44 11 -61
6 -566 8 -1180 5z m1176 -1492 l-1 -230 -638 0 c-433 0 -647 3 -663 11 -47 21
-51 40 -52 252 l-1 197 677 0 678 0 0 -230z"/>
</g>
</svg>
